<mxfile host="app.diagrams.net" agent="Mozilla/5.0 (Windows NT 10.0; Win64; x64) AppleWebKit/537.36 (KHTML, like Gecko) Chrome/130.0.0.0 Safari/537.36" version="24.8.4">
  <diagram name="Página-1" id="8xI83OYnmxnSGhv5hvuN">
    <mxGraphModel dx="1985" dy="857" grid="1" gridSize="10" guides="1" tooltips="1" connect="1" arrows="1" fold="1" page="1" pageScale="1" pageWidth="827" pageHeight="1169" math="0" shadow="0">
      <root>
        <mxCell id="0" />
        <mxCell id="1" parent="0" />
        <mxCell id="Kid_iY7snxeNaMo46vGM-1" style="edgeStyle=orthogonalEdgeStyle;rounded=0;orthogonalLoop=1;jettySize=auto;html=1;exitX=1;exitY=0.5;exitDx=0;exitDy=0;entryX=0;entryY=0.5;entryDx=0;entryDy=0;" edge="1" parent="1" source="Kid_iY7snxeNaMo46vGM-2" target="Kid_iY7snxeNaMo46vGM-6">
          <mxGeometry relative="1" as="geometry" />
        </mxCell>
        <mxCell id="Kid_iY7snxeNaMo46vGM-2" value="Aluno" style="swimlane;whiteSpace=wrap;html=1;" vertex="1" parent="1">
          <mxGeometry x="70" y="630" width="200" height="200" as="geometry" />
        </mxCell>
        <mxCell id="Kid_iY7snxeNaMo46vGM-3" value="Curso&lt;br&gt;Matricula" style="text;html=1;align=center;verticalAlign=middle;resizable=0;points=[];autosize=1;strokeColor=none;fillColor=none;" vertex="1" parent="Kid_iY7snxeNaMo46vGM-2">
          <mxGeometry x="10" y="45" width="70" height="40" as="geometry" />
        </mxCell>
        <mxCell id="Kid_iY7snxeNaMo46vGM-5" style="edgeStyle=orthogonalEdgeStyle;rounded=0;orthogonalLoop=1;jettySize=auto;html=1;entryX=0;entryY=0.5;entryDx=0;entryDy=0;" edge="1" parent="1" source="Kid_iY7snxeNaMo46vGM-6" target="Kid_iY7snxeNaMo46vGM-27">
          <mxGeometry relative="1" as="geometry" />
        </mxCell>
        <mxCell id="Kid_iY7snxeNaMo46vGM-6" value="Turma" style="swimlane;whiteSpace=wrap;html=1;" vertex="1" parent="1">
          <mxGeometry x="480" y="630" width="200" height="200" as="geometry" />
        </mxCell>
        <mxCell id="Kid_iY7snxeNaMo46vGM-7" value="ListaAlunos&lt;br&gt;Disciplina&lt;br&gt;IDturma&lt;br&gt;Professor" style="text;html=1;align=center;verticalAlign=middle;resizable=0;points=[];autosize=1;strokeColor=none;fillColor=none;" vertex="1" parent="Kid_iY7snxeNaMo46vGM-6">
          <mxGeometry x="-5" y="25" width="90" height="70" as="geometry" />
        </mxCell>
        <mxCell id="Kid_iY7snxeNaMo46vGM-9" style="edgeStyle=orthogonalEdgeStyle;rounded=0;orthogonalLoop=1;jettySize=auto;html=1;exitX=0.39;exitY=-0.012;exitDx=0;exitDy=0;entryX=0;entryY=0.5;entryDx=0;entryDy=0;exitPerimeter=0;" edge="1" parent="1" source="Kid_iY7snxeNaMo46vGM-2" target="Kid_iY7snxeNaMo46vGM-15">
          <mxGeometry relative="1" as="geometry">
            <mxPoint x="270" y="140" as="sourcePoint" />
            <Array as="points">
              <mxPoint x="148" y="141" />
              <mxPoint x="465" y="141" />
            </Array>
          </mxGeometry>
        </mxCell>
        <mxCell id="Kid_iY7snxeNaMo46vGM-14" style="edgeStyle=orthogonalEdgeStyle;rounded=0;orthogonalLoop=1;jettySize=auto;html=1;entryX=0;entryY=0.5;entryDx=0;entryDy=0;" edge="1" parent="1" source="Kid_iY7snxeNaMo46vGM-15" target="Kid_iY7snxeNaMo46vGM-23">
          <mxGeometry relative="1" as="geometry" />
        </mxCell>
        <mxCell id="Kid_iY7snxeNaMo46vGM-15" value="Matricula" style="swimlane;whiteSpace=wrap;html=1;startSize=23;" vertex="1" parent="1">
          <mxGeometry x="465" y="40" width="225" height="200" as="geometry" />
        </mxCell>
        <mxCell id="Kid_iY7snxeNaMo46vGM-16" value="&lt;div&gt;idMatricula&lt;/div&gt;&lt;div&gt;estudante&lt;/div&gt;&lt;div&gt;curso&lt;/div&gt;&lt;div&gt;periodoLetivo&lt;/div&gt;&lt;div&gt;dataMatricula&lt;/div&gt;&lt;div&gt;status&lt;/div&gt;" style="text;html=1;align=left;verticalAlign=middle;resizable=0;points=[];autosize=1;strokeColor=none;fillColor=none;" vertex="1" parent="Kid_iY7snxeNaMo46vGM-15">
          <mxGeometry x="5" y="25" width="100" height="100" as="geometry" />
        </mxCell>
        <mxCell id="Kid_iY7snxeNaMo46vGM-17" value="&lt;div&gt;cancelarMatricula()&lt;/div&gt;&lt;div&gt;&lt;span style=&quot;background-color: initial;&quot;&gt;&amp;nbsp;&lt;/span&gt;&lt;span style=&quot;background-color: initial;&quot;&gt;trancarMatricula()&lt;/span&gt;&lt;/div&gt;&lt;div&gt;reativarMatricula()&lt;/div&gt;" style="text;html=1;align=center;verticalAlign=middle;resizable=0;points=[];autosize=1;strokeColor=none;fillColor=none;" vertex="1" parent="Kid_iY7snxeNaMo46vGM-15">
          <mxGeometry x="-10" y="130" width="130" height="60" as="geometry" />
        </mxCell>
        <mxCell id="Kid_iY7snxeNaMo46vGM-18" style="edgeStyle=orthogonalEdgeStyle;rounded=0;orthogonalLoop=1;jettySize=auto;html=1;exitX=1;exitY=0.5;exitDx=0;exitDy=0;entryX=0;entryY=0.5;entryDx=0;entryDy=0;" edge="1" parent="1" source="Kid_iY7snxeNaMo46vGM-19" target="Kid_iY7snxeNaMo46vGM-31">
          <mxGeometry relative="1" as="geometry">
            <mxPoint x="770" y="420.7142857142858" as="targetPoint" />
          </mxGeometry>
        </mxCell>
        <mxCell id="Kid_iY7snxeNaMo46vGM-61" style="edgeStyle=orthogonalEdgeStyle;rounded=0;orthogonalLoop=1;jettySize=auto;html=1;exitX=0.5;exitY=1;exitDx=0;exitDy=0;entryX=0.5;entryY=0;entryDx=0;entryDy=0;" edge="1" parent="1" source="Kid_iY7snxeNaMo46vGM-19" target="Kid_iY7snxeNaMo46vGM-6">
          <mxGeometry relative="1" as="geometry" />
        </mxCell>
        <mxCell id="Kid_iY7snxeNaMo46vGM-19" value="Disciplinas" style="swimlane;whiteSpace=wrap;html=1;startSize=23;" vertex="1" parent="1">
          <mxGeometry x="480" y="320" width="200" height="200" as="geometry" />
        </mxCell>
        <mxCell id="Kid_iY7snxeNaMo46vGM-20" value="nome&lt;div&gt;curso&lt;/div&gt;" style="text;html=1;align=center;verticalAlign=middle;resizable=0;points=[];autosize=1;strokeColor=none;fillColor=none;" vertex="1" parent="Kid_iY7snxeNaMo46vGM-19">
          <mxGeometry x="10" y="30" width="50" height="40" as="geometry" />
        </mxCell>
        <mxCell id="Kid_iY7snxeNaMo46vGM-21" style="edgeStyle=orthogonalEdgeStyle;rounded=0;orthogonalLoop=1;jettySize=auto;html=1;entryX=0.25;entryY=0;entryDx=0;entryDy=0;" edge="1" parent="1" source="Kid_iY7snxeNaMo46vGM-23" target="Kid_iY7snxeNaMo46vGM-31">
          <mxGeometry relative="1" as="geometry">
            <Array as="points">
              <mxPoint x="940" y="280" />
              <mxPoint x="830" y="280" />
            </Array>
          </mxGeometry>
        </mxCell>
        <mxCell id="Kid_iY7snxeNaMo46vGM-22" style="edgeStyle=orthogonalEdgeStyle;rounded=0;orthogonalLoop=1;jettySize=auto;html=1;exitX=1;exitY=0.5;exitDx=0;exitDy=0;" edge="1" parent="1" source="Kid_iY7snxeNaMo46vGM-23">
          <mxGeometry relative="1" as="geometry">
            <mxPoint x="1309.9999999999995" y="139.52941176470586" as="targetPoint" />
          </mxGeometry>
        </mxCell>
        <mxCell id="Kid_iY7snxeNaMo46vGM-23" value="Curso" style="swimlane;whiteSpace=wrap;html=1;startSize=23;" vertex="1" parent="1">
          <mxGeometry x="910" y="40" width="200" height="200" as="geometry" />
        </mxCell>
        <mxCell id="Kid_iY7snxeNaMo46vGM-24" value="nomeCurso" style="text;html=1;align=center;verticalAlign=middle;resizable=0;points=[];autosize=1;strokeColor=none;fillColor=none;" vertex="1" parent="Kid_iY7snxeNaMo46vGM-23">
          <mxGeometry y="30" width="90" height="30" as="geometry" />
        </mxCell>
        <mxCell id="Kid_iY7snxeNaMo46vGM-25" value="disciplinas" style="text;html=1;align=center;verticalAlign=middle;resizable=0;points=[];autosize=1;strokeColor=none;fillColor=none;" vertex="1" parent="Kid_iY7snxeNaMo46vGM-23">
          <mxGeometry y="50" width="80" height="30" as="geometry" />
        </mxCell>
        <mxCell id="Kid_iY7snxeNaMo46vGM-26" value="alunos" style="text;html=1;align=center;verticalAlign=middle;resizable=0;points=[];autosize=1;strokeColor=none;fillColor=none;" vertex="1" parent="Kid_iY7snxeNaMo46vGM-23">
          <mxGeometry y="70" width="60" height="30" as="geometry" />
        </mxCell>
        <mxCell id="Kid_iY7snxeNaMo46vGM-27" value="Professor" style="swimlane;whiteSpace=wrap;html=1;startSize=23;" vertex="1" parent="1">
          <mxGeometry x="940" y="630" width="200" height="200" as="geometry" />
        </mxCell>
        <mxCell id="Kid_iY7snxeNaMo46vGM-28" value="idprofessor&lt;div&gt;Lista&amp;lt;Turmas&amp;gt;&lt;br&gt;Lista&amp;lt;Disciplinas&amp;gt;&lt;/div&gt;" style="text;html=1;align=center;verticalAlign=middle;resizable=0;points=[];autosize=1;strokeColor=none;fillColor=none;" vertex="1" parent="Kid_iY7snxeNaMo46vGM-27">
          <mxGeometry y="30" width="120" height="60" as="geometry" />
        </mxCell>
        <mxCell id="Kid_iY7snxeNaMo46vGM-29" value="Coordenador" style="swimlane;whiteSpace=wrap;html=1;startSize=23;" vertex="1" parent="1">
          <mxGeometry x="1310" y="320" width="200" height="200" as="geometry" />
        </mxCell>
        <mxCell id="Kid_iY7snxeNaMo46vGM-30" value="Curso&lt;br&gt;IDCoordenador&lt;div&gt;&lt;br&gt;&lt;/div&gt;" style="text;html=1;align=center;verticalAlign=middle;resizable=0;points=[];autosize=1;strokeColor=none;fillColor=none;" vertex="1" parent="Kid_iY7snxeNaMo46vGM-29">
          <mxGeometry x="-10" y="35" width="110" height="60" as="geometry" />
        </mxCell>
        <mxCell id="Kid_iY7snxeNaMo46vGM-31" value="Graduação" style="swimlane;whiteSpace=wrap;html=1;startSize=23;" vertex="1" parent="1">
          <mxGeometry x="780" y="320" width="200" height="200" as="geometry" />
        </mxCell>
        <mxCell id="Kid_iY7snxeNaMo46vGM-32" value="nomeCurso" style="text;html=1;align=center;verticalAlign=middle;resizable=0;points=[];autosize=1;strokeColor=none;fillColor=none;" vertex="1" parent="Kid_iY7snxeNaMo46vGM-31">
          <mxGeometry y="30" width="90" height="30" as="geometry" />
        </mxCell>
        <mxCell id="Kid_iY7snxeNaMo46vGM-33" value="disciplinas" style="text;html=1;align=center;verticalAlign=middle;resizable=0;points=[];autosize=1;strokeColor=none;fillColor=none;" vertex="1" parent="Kid_iY7snxeNaMo46vGM-31">
          <mxGeometry y="50" width="80" height="30" as="geometry" />
        </mxCell>
        <mxCell id="Kid_iY7snxeNaMo46vGM-34" value="alunos" style="text;html=1;align=center;verticalAlign=middle;resizable=0;points=[];autosize=1;strokeColor=none;fillColor=none;" vertex="1" parent="Kid_iY7snxeNaMo46vGM-31">
          <mxGeometry y="70" width="60" height="30" as="geometry" />
        </mxCell>
        <mxCell id="Kid_iY7snxeNaMo46vGM-35" value="Pos-Graduação" style="swimlane;whiteSpace=wrap;html=1;startSize=23;" vertex="1" parent="1">
          <mxGeometry x="1041" y="320" width="200" height="200" as="geometry" />
        </mxCell>
        <mxCell id="Kid_iY7snxeNaMo46vGM-36" value="nomeCurso" style="text;html=1;align=center;verticalAlign=middle;resizable=0;points=[];autosize=1;strokeColor=none;fillColor=none;" vertex="1" parent="Kid_iY7snxeNaMo46vGM-35">
          <mxGeometry y="30" width="90" height="30" as="geometry" />
        </mxCell>
        <mxCell id="Kid_iY7snxeNaMo46vGM-37" value="disciplinas" style="text;html=1;align=center;verticalAlign=middle;resizable=0;points=[];autosize=1;strokeColor=none;fillColor=none;" vertex="1" parent="Kid_iY7snxeNaMo46vGM-35">
          <mxGeometry y="50" width="80" height="30" as="geometry" />
        </mxCell>
        <mxCell id="Kid_iY7snxeNaMo46vGM-38" value="alunos" style="text;html=1;align=center;verticalAlign=middle;resizable=0;points=[];autosize=1;strokeColor=none;fillColor=none;" vertex="1" parent="Kid_iY7snxeNaMo46vGM-35">
          <mxGeometry y="70" width="60" height="30" as="geometry" />
        </mxCell>
        <mxCell id="Kid_iY7snxeNaMo46vGM-39" style="edgeStyle=orthogonalEdgeStyle;rounded=0;orthogonalLoop=1;jettySize=auto;html=1;exitX=0.75;exitY=1;exitDx=0;exitDy=0;entryX=0.694;entryY=-0.005;entryDx=0;entryDy=0;entryPerimeter=0;" edge="1" parent="1" source="Kid_iY7snxeNaMo46vGM-23" target="Kid_iY7snxeNaMo46vGM-35">
          <mxGeometry relative="1" as="geometry" />
        </mxCell>
        <mxCell id="Kid_iY7snxeNaMo46vGM-40" style="edgeStyle=orthogonalEdgeStyle;rounded=0;orthogonalLoop=1;jettySize=auto;html=1;exitX=0.5;exitY=1;exitDx=0;exitDy=0;entryX=0.5;entryY=0;entryDx=0;entryDy=0;" edge="1" parent="1" source="Kid_iY7snxeNaMo46vGM-43" target="Kid_iY7snxeNaMo46vGM-29">
          <mxGeometry relative="1" as="geometry" />
        </mxCell>
        <mxCell id="Kid_iY7snxeNaMo46vGM-41" style="edgeStyle=orthogonalEdgeStyle;rounded=0;orthogonalLoop=1;jettySize=auto;html=1;exitX=1;exitY=0.5;exitDx=0;exitDy=0;entryX=1;entryY=0.75;entryDx=0;entryDy=0;" edge="1" parent="1" source="Kid_iY7snxeNaMo46vGM-43" target="Kid_iY7snxeNaMo46vGM-27">
          <mxGeometry relative="1" as="geometry" />
        </mxCell>
        <mxCell id="Kid_iY7snxeNaMo46vGM-42" style="edgeStyle=orthogonalEdgeStyle;rounded=0;orthogonalLoop=1;jettySize=auto;html=1;exitX=1;exitY=0.25;exitDx=0;exitDy=0;entryX=0.5;entryY=1;entryDx=0;entryDy=0;" edge="1" parent="1" source="Kid_iY7snxeNaMo46vGM-43" target="Kid_iY7snxeNaMo46vGM-2">
          <mxGeometry relative="1" as="geometry" />
        </mxCell>
        <mxCell id="Kid_iY7snxeNaMo46vGM-43" value="Pessoa" style="swimlane;whiteSpace=wrap;html=1;startSize=23;" vertex="1" parent="1">
          <mxGeometry x="1310" y="50" width="200" height="200" as="geometry" />
        </mxCell>
        <mxCell id="Kid_iY7snxeNaMo46vGM-44" value="Nome" style="text;html=1;align=center;verticalAlign=middle;resizable=0;points=[];autosize=1;strokeColor=none;fillColor=none;" vertex="1" parent="Kid_iY7snxeNaMo46vGM-43">
          <mxGeometry x="15" y="30" width="60" height="30" as="geometry" />
        </mxCell>
        <mxCell id="Kid_iY7snxeNaMo46vGM-45" value="CPF" style="text;html=1;align=center;verticalAlign=middle;resizable=0;points=[];autosize=1;strokeColor=none;fillColor=none;" vertex="1" parent="Kid_iY7snxeNaMo46vGM-43">
          <mxGeometry x="15" y="50" width="50" height="30" as="geometry" />
        </mxCell>
        <mxCell id="Kid_iY7snxeNaMo46vGM-46" value="Idade&lt;div&gt;&lt;br/&gt;&lt;/div&gt;" style="text;html=1;align=center;verticalAlign=middle;resizable=0;points=[];autosize=1;strokeColor=none;fillColor=none;" vertex="1" parent="Kid_iY7snxeNaMo46vGM-43">
          <mxGeometry x="20" y="65" width="50" height="40" as="geometry" />
        </mxCell>
        <mxCell id="Kid_iY7snxeNaMo46vGM-47" style="edgeStyle=orthogonalEdgeStyle;rounded=0;orthogonalLoop=1;jettySize=auto;html=1;exitX=0.5;exitY=0;exitDx=0;exitDy=0;entryX=0.043;entryY=-0.011;entryDx=0;entryDy=0;entryPerimeter=0;" edge="1" parent="1" source="Kid_iY7snxeNaMo46vGM-15" target="Kid_iY7snxeNaMo46vGM-2">
          <mxGeometry relative="1" as="geometry" />
        </mxCell>
        <mxCell id="Kid_iY7snxeNaMo46vGM-48" value="1,n" style="text;html=1;align=center;verticalAlign=middle;resizable=0;points=[];autosize=1;strokeColor=none;fillColor=none;" vertex="1" parent="1">
          <mxGeometry x="270" y="698" width="40" height="30" as="geometry" />
        </mxCell>
        <mxCell id="Kid_iY7snxeNaMo46vGM-49" value="n, 1" style="text;html=1;align=center;verticalAlign=middle;resizable=0;points=[];autosize=1;strokeColor=none;fillColor=none;" vertex="1" parent="1">
          <mxGeometry x="440" y="698" width="40" height="30" as="geometry" />
        </mxCell>
        <mxCell id="Kid_iY7snxeNaMo46vGM-50" value="1,n" style="text;html=1;align=center;verticalAlign=middle;resizable=0;points=[];autosize=1;strokeColor=none;fillColor=none;" vertex="1" parent="1">
          <mxGeometry x="900" y="698" width="40" height="30" as="geometry" />
        </mxCell>
        <mxCell id="Kid_iY7snxeNaMo46vGM-51" value="1,n" style="text;html=1;align=center;verticalAlign=middle;resizable=0;points=[];autosize=1;strokeColor=none;fillColor=none;" vertex="1" parent="1">
          <mxGeometry x="680" y="698" width="40" height="30" as="geometry" />
        </mxCell>
        <mxCell id="Kid_iY7snxeNaMo46vGM-53" value="1,1" style="text;html=1;align=center;verticalAlign=middle;resizable=0;points=[];autosize=1;strokeColor=none;fillColor=none;" vertex="1" parent="1">
          <mxGeometry x="430" y="108" width="40" height="30" as="geometry" />
        </mxCell>
        <mxCell id="Kid_iY7snxeNaMo46vGM-54" value="1,1" style="text;html=1;align=center;verticalAlign=middle;resizable=0;points=[];autosize=1;strokeColor=none;fillColor=none;" vertex="1" parent="1">
          <mxGeometry x="160" y="598" width="40" height="30" as="geometry" />
        </mxCell>
        <mxCell id="Kid_iY7snxeNaMo46vGM-56" value="1,1" style="text;html=1;align=center;verticalAlign=middle;resizable=0;points=[];autosize=1;strokeColor=none;fillColor=none;" vertex="1" parent="1">
          <mxGeometry x="690" y="108" width="40" height="30" as="geometry" />
        </mxCell>
        <mxCell id="Kid_iY7snxeNaMo46vGM-57" value="n,1" style="text;html=1;align=center;verticalAlign=middle;resizable=0;points=[];autosize=1;strokeColor=none;fillColor=none;" vertex="1" parent="1">
          <mxGeometry x="870" y="108" width="40" height="30" as="geometry" />
        </mxCell>
        <mxCell id="Kid_iY7snxeNaMo46vGM-58" value="1,1" style="text;html=1;align=center;verticalAlign=middle;resizable=0;points=[];autosize=1;strokeColor=none;fillColor=none;" vertex="1" parent="1">
          <mxGeometry x="1110" y="108" width="40" height="30" as="geometry" />
        </mxCell>
        <mxCell id="Kid_iY7snxeNaMo46vGM-59" value="n,1" style="text;html=1;align=center;verticalAlign=middle;resizable=0;points=[];autosize=1;strokeColor=none;fillColor=none;" vertex="1" parent="1">
          <mxGeometry x="1270" y="108" width="40" height="30" as="geometry" />
        </mxCell>
        <mxCell id="Kid_iY7snxeNaMo46vGM-60" value="1,1" style="text;html=1;align=center;verticalAlign=middle;resizable=0;points=[];autosize=1;strokeColor=none;fillColor=none;" vertex="1" parent="1">
          <mxGeometry x="1420" y="278" width="40" height="30" as="geometry" />
        </mxCell>
        <mxCell id="Kid_iY7snxeNaMo46vGM-62" value="1,n" style="text;html=1;align=center;verticalAlign=middle;resizable=0;points=[];autosize=1;strokeColor=none;fillColor=none;" vertex="1" parent="1">
          <mxGeometry x="590" y="530" width="40" height="30" as="geometry" />
        </mxCell>
      </root>
    </mxGraphModel>
  </diagram>
</mxfile>
